<svg xmlns="http://www.w3.org/2000/svg" viewBox="0 0 900 520" role="img" aria-label="Industrial premium dish production line">
  <defs>
    <linearGradient id="a" x1="0" x2="1">
      <stop stop-color="#111"/>
      <stop offset=".55" stop-color="#2a2a2a"/>
      <stop offset="1" stop-color="#111"/>
    </linearGradient>
    <radialGradient id="b" cx=".5" cy=".45" r=".45">
      <stop stop-color="#ff6a00" stop-opacity=".9"/>
      <stop offset=".5" stop-color="#ff6a00" stop-opacity=".2"/>
      <stop offset="1" stop-color="#ff6a00" stop-opacity="0"/>
    </radialGradient>
  </defs>
  <rect width="900" height="520" fill="#0b0b0b"/>
  <rect width="900" height="520" fill="url(#b)"/>
  <path d="M0 360h900v120H0z" fill="url(#a)" stroke="#ff6a00" stroke-width="6"/>
  <g fill="#ccc" opacity=".3">
    <rect x="80" y="382" width="90" height="18"/>
    <rect x="235" y="382" width="90" height="18"/>
    <rect x="390" y="382" width="90" height="18"/>
    <rect x="545" y="382" width="90" height="18"/>
    <rect x="700" y="382" width="90" height="18"/>
  </g>
  <g transform="translate(450 250)">
    <ellipse cx="0" cy="65" rx="190" ry="42" fill="#090909"/>
    <circle cx="-54" cy="0" r="94" fill="#222" stroke="#ff6a00" stroke-width="8"/>
    <circle cx="52" cy="0" r="86" fill="#151515" stroke="#ccc" stroke-opacity=".45" stroke-width="5"/>
    <path d="M-116-8C-70-54-2-55 43-8C3 26-72 32-116-8Z" fill="#ff6a00" opacity=".85"/>
  </g>
</svg>
