<svg xmlns="http://www.w3.org/2000/svg" viewBox="0 0 1600 900" role="img" aria-label="Background industriale futuristico con fabbriche FICSIT, nastri trasportatori e paesaggio alieno">
  <defs>
    <linearGradient id="sky" x1="0" y1="0" x2="0" y2="1">
      <stop stop-color="#281a12"/>
      <stop offset=".55" stop-color="#111"/>
      <stop offset="1" stop-color="#070707"/>
    </linearGradient>
    <filter id="glow"><feGaussianBlur stdDeviation="6" result="b"/><feMerge><feMergeNode in="b"/><feMergeNode in="SourceGraphic"/></feMerge></filter>
  </defs>
  <rect width="1600" height="900" fill="url(#sky)"/>
  <circle cx="1290" cy="150" r="84" fill="#ff6a00" opacity=".35" filter="url(#glow)"/>
  <path d="M0 610 C220 500 360 575 520 520 C720 450 860 570 1040 500 C1240 430 1390 500 1600 420 V900 H0Z" fill="#1b1b1b"/>
  <path d="M0 700 L260 620 L480 675 L760 590 L1020 660 L1300 570 L1600 640 V900 H0Z" fill="#0f0f0f"/>
  <g fill="#222" stroke="#ff6a00" stroke-opacity=".55">
    <rect x="170" y="390" width="240" height="260"/>
    <rect x="460" y="330" width="180" height="320"/>
    <rect x="690" y="410" width="300" height="240"/>
    <rect x="1090" y="360" width="230" height="290"/>
    <path d="M190 390 L290 300 L390 390Z"/>
    <path d="M1090 360 L1210 270 L1320 360Z"/>
  </g>
  <g stroke="#ff6a00" stroke-width="10" stroke-linecap="square" opacity=".8" filter="url(#glow)">
    <path d="M30 680 H420 L540 610 H920 L1070 690 H1540"/>
    <path d="M500 375 H970"/>
  </g>
  <g fill="#111" stroke="#ccc" opacity=".65">
    <rect x="210" y="450" width="42" height="75"/>
    <rect x="290" y="450" width="42" height="75"/>
    <rect x="520" y="390" width="38" height="70"/>
    <rect x="1160" y="430" width="45" height="76"/>
  </g>
  <text x="80" y="110" fill="#ff6a00" font-family="Arial Black, sans-serif" font-size="34">FICSIT INDUSTRIAL FOOD COMPLEX</text>
</svg>
